<?xml version="1.0" encoding="iso-8859-1"?>
<!-- Generator: Adobe Illustrator 19.0.0, SVG Export Plug-In . SVG Version: 6.00 Build 0)  -->
<svg version="1.1" id="Capa_1" xmlns="http://www.w3.org/2000/svg" xmlns:xlink="http://www.w3.org/1999/xlink" x="0px" y="0px"
	 viewBox="0 0 512 512" style="enable-background:new 0 0 512 512;" xml:space="preserve">
<path style="fill:#FD3019;" d="M256,494.055L45.763,284.159C16.252,254.695,0,215.52,0,173.849s16.252-80.846,45.763-110.31
	C103.212,6.185,194.7,2.938,256,53.818c61.298-50.88,152.785-47.633,210.236,9.722C495.748,93.003,512,132.178,512,173.849
	s-16.252,80.846-45.763,110.31L256,494.055z"/>
<path style="fill:#E71E15;" d="M466.236,63.539C408.785,6.185,317.298,2.938,256,53.818v440.237l210.237-209.896
	C495.748,254.695,512,215.52,512,173.849S495.748,93.003,466.236,63.539z"/>
<path style="fill:#FEDBAB;" d="M301,334.859h-90v-60h-60v-90h60v-60h90v60h60v90h-60V334.859z"/>
<polygon style="fill:#FEC478;" points="256,124.859 256,334.859 301,334.859 301,274.859 361,274.859 361,184.859 301,184.859 
	301,124.859 "/>
<g>
</g>
<g>
</g>
<g>
</g>
<g>
</g>
<g>
</g>
<g>
</g>
<g>
</g>
<g>
</g>
<g>
</g>
<g>
</g>
<g>
</g>
<g>
</g>
<g>
</g>
<g>
</g>
<g>
</g>
</svg>
